<?xml version="1.0" encoding="utf-8"?>
<!-- Generator: Adobe Illustrator 18.1.1, SVG Export Plug-In . SVG Version: 6.00 Build 0)  -->
<svg version="1.1" xmlns="http://www.w3.org/2000/svg" xmlns:xlink="http://www.w3.org/1999/xlink" x="0px" y="0px"
	 viewBox="0 0 600 95.7" enable-background="new 0 0 600 95.7" xml:space="preserve">
<g id="base" display="none">
	<g display="inline">
		<defs>
			<rect id="SVGID_1_" y="0" width="600" height="95.7"/>
		</defs>
		<clipPath id="SVGID_2_">
			<use xlink:href="#SVGID_1_"  overflow="visible"/>
		</clipPath>
		<g clip-path="url(#SVGID_2_)">
			<rect x="-12.3" y="-7.2" fill="#DFFFF9" width="634.3" height="101.3"/>
			<rect x="342.4" y="46.9" fill="#FFCA53" width="11.6" height="10.8"/>
			<polygon fill="#468071" points="508,100 317.5,102.5 381.7,-7.2 483,-7.2 			"/>
			<polygon fill="#BEDB39" points="236.8,60.8 309.2,16.5 336.3,35.4 265.5,97.3 216.5,104.8 220,95.6 			"/>
			<path fill="#004358" d="M110,95.6L207.7-5.3c0,0,50.7-1.7,51.7-1.7s6.3,7,6.3,7L215,106.3l-98-1.6L110,95.6z"/>
			<polygon fill="#FF2D00" points="26,100 160.7,-7 194,-7 202.5,0 108,97.7 66.3,102.5 			"/>
			<polygon fill="#F7E967" points="534.2,0 603,48.5 608.8,94.2 600,88 483,-7.2 512,-5.9 527.2,-7.2 			"/>
			<path fill="#5BC76D" d="M280.3-3.7C282.8-2,414,114,414,114l71.3-14L385.5-22l-101.8,9.2L280.3-3.7z"/>
		</g>
	</g>
</g>
<g id="bottom" display="none">
	<g display="inline">
		<defs>
			<rect id="SVGID_3_" y="0" width="600" height="95.6"/>
		</defs>
		<clipPath id="SVGID_4_">
			<use xlink:href="#SVGID_3_"  overflow="visible"/>
		</clipPath>
		<g clip-path="url(#SVGID_4_)">
			<polygon fill="#14D0C5" points="50.3,95.6 158,-12.5 94.8,-14 24.5,-14 -6.5,-10.7 -16.8,43.7 -12.8,94.5 0,95.6 			"/>
			<polygon fill="#1F8A70" points="265.8,95.6 325.8,35.5 320,95.6 			"/>
			<circle fill="#8DE6FF" cx="245.7" cy="19.5" r="13.7"/>
			<circle fill="#8DE6FF" cx="291.1" cy="35.2" r="24.1"/>
			<path fill="#04BFBF" d="M583.1-0.7L600.9,14l3.6-9.8c0,0-4.2-6.7-4.5-6.8c-0.3-0.2-13.5,0-13.5,0l-3,1.7L583.1-0.7z"/>
			<polygon fill="#FFE87A" points="488.3,-5.5 485.5,0 462.8,85 429,85 435.8,51.3 427.8,46.3 480.3,-5.5 			"/>
			<polyline fill="#6BA736" points="343,0 327.5,-7 320.5,0 270.5,97 522,95.6 			"/>
			<polygon fill="#1F8A70" points="181.5,0 289.8,95.6 239.5,98.5 224,95.6 122.3,-7 163.5,-7 			"/>
			<polygon fill="#FFC000" points="56.5,0 155.5,95.6 128.5,95.6 28,-8.2 47.3,-7 			"/>
		</g>
	</g>
</g>
<g id="middle">
	<g>
		<defs>
			<rect id="SVGID_5_" y="0.3" width="600" height="95"/>
		</defs>
		<clipPath id="SVGID_6_">
			<use xlink:href="#SVGID_5_"  overflow="visible"/>
		</clipPath>
		<g clip-path="url(#SVGID_6_)">
			<polygon fill="#FF893B" points="385,95.9 517.5,17.3 525.5,96 			"/>
			<polygon fill="#A9CF54" points="412.5,0.3 545.3,95.9 605.3,95.9 603,67.8 600,66.8 495.8,-8.7 412.5,-6.4 			"/>
			<polygon fill="#FFAE00" points="326.5,0.3 232.5,95.9 170.5,95.9 269.5,-3.9 304,-8.7 			"/>
			<path fill="#D90000" d="M121.3,95.9c0.8,0,53.8,0,53.8,0l-65.8-61.6L84,58.8L121.3,95.9z"/>
			<path fill="#04756F" d="M110.8,0.3c-0.8,0-98.5,95.6-98.5,95.6l90.8,2.3l67-97.8l-48.3-10.8l-10.8,5L110.8,0.3z"/>
		</g>
	</g>
</g>
<g id="top" display="none">
	<g display="inline">
		<defs>
			<rect id="SVGID_7_" y="0" width="600" height="95.6"/>
		</defs>
		<clipPath id="SVGID_8_">
			<use xlink:href="#SVGID_7_"  overflow="visible"/>
		</clipPath>
		<g clip-path="url(#SVGID_8_)">
			<circle fill="#FFC000" cx="97.7" cy="80.3" r="17.7"/>
			<polygon fill="#FD7400" points="168,0 84.5,95.7 257,95.6 			"/>
			<polygon fill="#FFE11A" points="273.3,0 201.3,72.3 178,98 222.3,98 225.7,95.6 322.3,-2.3 295.7,-7.7 273,-7.7 			"/>
			<polygon fill="#F7E967" points="480.5,47.8 547.8,95.6 484.5,95.6 457.3,76.8 426,54.8 453.8,25.3 475.5,37.8 			"/>
			<polygon fill="#F4FF7A" points="225.7,95.6 306.3,-12 318.7,-8 320.3,0 412.7,69.3 401.3,91.7 391,95.6 			"/>
			<polygon fill="#04BFBF" points="463.5,0 384.5,95.6 443,95.6 520.8,-2 470,-4.5 463.8,-4.5 			"/>
			<polygon fill="#FFFAC6" points="308.7,95.6 323.3,55 369.7,72 360.7,95.6 			"/>
			<polygon fill="#FF8C00" points="0,57.3 67.3,87.7 59.7,95.6 -5.3,95.6 -9.7,65.5 			"/>
		</g>
	</g>
</g>
</svg>
