<?xml version="1.0" encoding="utf-8"?>
<!-- Generator: Adobe Illustrator 18.1.1, SVG Export Plug-In . SVG Version: 6.00 Build 0)  -->
<svg version="1.1" id="Layer_1" xmlns="http://www.w3.org/2000/svg" xmlns:xlink="http://www.w3.org/1999/xlink" x="0px" y="0px"
	 viewBox="0 0 131.9 93.4" enable-background="new 0 0 131.9 93.4" xml:space="preserve">
<g>
	<g>
		<g>
			<path fill="#65C8D0" d="M-496.9-82.5c0.7-16.4,0.7-32.2,8.1-47.2c6.3-12.8,15-25.9,27.5-33.4c23.8-14.4,55.8-9.5,81-1.9
				c1.1,0.3-1.7-3.1-2.7-3.4c-25.2-7.6-56.6-12.4-80.7,1.2c-13.1,7.4-22.1,20.9-28.7,34.1c-7.5,15.1-7.6,31.1-8.2,47.6
				C-500.8-84.3-497-82-496.9-82.5L-496.9-82.5z"/>
		</g>
	</g>
	<g>
		<g>
			<path fill="#65C8D0" d="M-481.6-101c-7.3,4.4-14,9.4-19.9,15.5c1.7,0.2,3.3,0.3,5,0.5c-5-8.4-5-18.7-10.3-27
				c-0.7-1.1-4.6,0-5-0.5c5.4,8.3,5.3,18.6,10.3,27c0.4,0.6,4.5,1,5,0.5c5.9-6.1,12.5-11,19.7-15.4
				C-477.2-100.1-480.5-101.7-481.6-101L-481.6-101z"/>
		</g>
	</g>
	<g>
		<g>
			<path fill="#65C8D0" d="M-480.8-100.8c-8-2.5-15.6-5.9-23.6-8.4c-3.1-1-0.5,2.5,1.1,3c8,2.5,15.6,5.9,23.6,8.4
				C-476.6-96.8-479.2-100.2-480.8-100.8L-480.8-100.8z"/>
		</g>
	</g>
	<g>
		<g>
			<path fill="#65C8D0" d="M-490.9-94.2c3.1-1,5.6-3.2,5.6-6.6c0-1.1-3.2-1.6-4-1.6c-3.9-0.2-6.3,1.7-8.1,5c1.6,0.5,3.2,0.9,4.8,1.4
				c0.1-4.2-4-6.9-8.1-5.8c-5.1,1.4-3.8,7-0.9,9.8c0.5,0.5,4.1,2,4.6,1c2.3-5-3-9.4-5.3-13.4c-0.8,0-1.7,0.1-2.5,0.1
				c5.6,1.4,7,7.5,6.9,12.5c0,1.2,4.8,1.9,4.8,1.4c0.1-7.9-3.7-13.1-11.4-15.1c-0.1,0-3-0.6-2.5,0.1c2.2,3.8,7.4,8.2,5.2,13
				c1.5,0.3,3,0.7,4.6,1c-1.9-1.9-3.2-4.6-1.4-7c0.2-0.2,2.5-1.7,2.5-1.7c-0.6-0.2-1.3-0.3-1.9-0.5c0.1,0.2,0.3,0.4,0.3,0.6
				c-0.1,0.6,0.4,1.9,0.4,2.6c0,1,4.3,2.3,4.8,1.4c1.4-2.5,3.3-4.7,6.4-4.5c-1.3-0.5-2.6-1.1-4-1.6c0,3.3-2.3,5.4-5.3,6.3
				c-0.7,0.2,1.4,1.2,1.5,1.2C-493.1-94.3-491.8-93.9-490.9-94.2L-490.9-94.2z"/>
		</g>
	</g>
</g>
<g>
	<g>
		<g>
			<path fill="#65C8D0" d="M120.7,93.3c-0.7-17.2-1-33.4-8.9-49.1c-6.5-12.7-15.3-25.4-27.4-33.4C60-5.4,26.6-0.7,0.1,7.3
				c-0.7,0.2,2.2,3.9,3.3,3.5c23.8-7.2,52.7-11.8,76-0.8c14.5,6.8,23.8,21.1,30.4,35.2c6.7,14.3,6.5,29.7,7.1,45.1
				C117,91.6,120.7,93.7,120.7,93.3L120.7,93.3z"/>
		</g>
	</g>
	<g>
		<g>
			<path fill="#65C8D0" d="M96.8,75c7.3,4.3,13.9,9.3,19.7,15.4c0.5,0.5,4.6,1.1,5,0.5c5-8.4,5-18.7,10.3-27c-0.2,0.3-4.4-1.4-5-0.5
				c-5.4,8.3-5.3,18.6-10.3,27c1.7,0.2,3.3,0.3,5,0.5c-5.9-6.1-12.6-11.2-19.9-15.5C100.4,74.6,97.4,75.3,96.8,75L96.8,75z"/>
		</g>
	</g>
	<g>
		<g>
			<path fill="#65C8D0" d="M102.2,78.1c8-2.5,15.6-5.9,23.6-8.4c1.4-0.4-2.3-3.5-3.8-3c-8,2.5-15.6,5.9-23.6,8.4
				C97,75.5,100.6,78.6,102.2,78.1L102.2,78.1z"/>
		</g>
	</g>
	<g>
		<g>
			<path fill="#65C8D0" d="M113.3,80.2c-1-0.3-3.9-2.9-3.2-4.3c0.5-1.2,2.3,2.2,2.5,2.7c0.4,0.7,4.8,2,4.8,1.2c0-1.1,0-2.5,0.7-3.4
				c-0.1,0.1,1.2-1.1,1.2-0.7c-1.4-0.5-1.8-0.6-1.2-0.2c0.2,0.2,0.4,0.4,0.6,0.6c1.2,2.9,0.8,4.8-1.5,7.1c1.5,0.4,3.1,0.9,4.6,1.3
				c-2.2-4.8,3.1-9.3,5.3-13c0.5-0.9-4.1-1.7-4.7-1.5c-6.7,1.8-9.3,7.4-9.3,14c0,1.2,4.8,1.9,4.8,1.4c-0.1-6.4,2.4-12,9-13.7
				c-1.6-0.5-3.1-1-4.7-1.5c-2.3,4.1-7.5,8.3-5.2,13.4c0.4,0.8,3.9,2,4.6,1.3c3.3-3.3,3.5-7.7-1-9.9c-3.8-1.9-8.2-1.8-8.1,3.4
				c1.6,0.4,3.2,0.8,4.8,1.2c-2.4-4.4-6.7-6.5-11.6-6.2c-0.2,0-0.3,0.1-0.4,0.2c0,4.5,3.9,6.6,7.7,7.8
				C115.7,82.2,116.1,81,113.3,80.2L113.3,80.2z"/>
		</g>
	</g>
</g>
<g>
	<g>
		<g>
			<path fill="#65C8D0" d="M-84.3-91.9c8.3-2.5,17.5-1.3,26-1.6c9-0.2,17.9-0.1,26.8,0.2c9.1,0.3,18,1.2,27.1,1.9
				c4.4,0.3,8.9,0.5,13.3,0.9c4.4,0.4,9,1.6,13.3,1.7c1.2,0,4.9-2.6,3.6-2.6c-4.4-0.1-8.9-1.3-13.3-1.7c-5.1-0.4-10.1-0.7-15.2-1.1
				c-9.7-0.7-19.2-1.6-28.9-1.8c-9.4-0.2-18.8,0-28.3,0c-7.6,0-15.3-0.6-22.7,1.7C-83.8-93.9-87.3-91-84.3-91.9L-84.3-91.9z"/>
		</g>
	</g>
	<g>
		<g>
			<path fill="#65C8D0" d="M-9.5-115.3c11,13.6,25.4,21.7,41.6,27.7c-0.4-1.4-0.8-2.9-1.2-4.3C16.6-88.5,1-86.4-9.7-75.3
				c-1.6,1.7,1.5,5.6,3,4C3.8-82.1,19-84.1,33.1-87.5c2.3-0.6,0-3.9-1.2-4.3c-15-5.6-28.5-12.9-38.7-25.5
				C-8.8-119.7-11.5-117.7-9.5-115.3L-9.5-115.3z"/>
		</g>
	</g>
</g>
</svg>
