<?xml version="1.0" encoding="utf-8"?>
<!-- Generator: Adobe Illustrator 18.1.1, SVG Export Plug-In . SVG Version: 6.00 Build 0)  -->
<svg version="1.1" id="Layer_1" xmlns="http://www.w3.org/2000/svg" xmlns:xlink="http://www.w3.org/1999/xlink" x="0px" y="0px"
	 viewBox="0 0 119.5 47.5" enable-background="new 0 0 119.5 47.5" xml:space="preserve">
<g>
	<g>
		<g>
			<path fill="#65C8D0" d="M-411.5,35.9c0.7-16.4,0.7-32.2,8.1-47.2c6.3-12.8,15-25.9,27.5-33.4c23.8-14.4,55.8-9.5,81-1.9
				c1.1,0.3-1.7-3.1-2.7-3.4c-25.2-7.6-56.6-12.4-80.7,1.2c-13.1,7.4-22.1,20.9-28.7,34.1c-7.5,15.1-7.6,31.1-8.2,47.6
				C-415.3,34.1-411.5,36.4-411.5,35.9L-411.5,35.9z"/>
		</g>
	</g>
	<g>
		<g>
			<path fill="#65C8D0" d="M-396.1,17.4c-7.3,4.4-14,9.4-19.9,15.5c1.7,0.2,3.3,0.3,5,0.5c-5-8.4-5-18.7-10.3-27
				c-0.7-1.1-4.6,0-5-0.5c5.4,8.3,5.3,18.6,10.3,27c0.4,0.6,4.5,1,5,0.5c5.9-6.1,12.5-11,19.7-15.4C-391.8,18.3-395,16.7-396.1,17.4
				L-396.1,17.4z"/>
		</g>
	</g>
	<g>
		<g>
			<path fill="#65C8D0" d="M-395.3,17.6c-8-2.5-15.6-5.9-23.6-8.4c-3.1-1-0.5,2.5,1.1,3c8,2.5,15.6,5.9,23.6,8.4
				C-391.1,21.6-393.7,18.1-395.3,17.6L-395.3,17.6z"/>
		</g>
	</g>
	<g>
		<g>
			<path fill="#65C8D0" d="M-405.4,24.2c3.1-1,5.6-3.2,5.6-6.6c0-1.1-3.2-1.6-4-1.6c-3.9-0.2-6.3,1.7-8.1,5c1.6,0.5,3.2,0.9,4.8,1.4
				c0.1-4.2-4-6.9-8.1-5.8c-5.1,1.4-3.8,7-0.9,9.8c0.5,0.5,4.1,2,4.6,1c2.3-5-3-9.4-5.3-13.4c-0.8,0-1.7,0.1-2.5,0.1
				c5.6,1.4,7,7.5,6.9,12.5c0,1.2,4.8,1.9,4.8,1.4c0.1-7.9-3.7-13.1-11.4-15.1c-0.1,0-3-0.6-2.5,0.1c2.2,3.8,7.4,8.2,5.2,13
				c1.5,0.3,3,0.7,4.6,1c-1.9-1.9-3.2-4.6-1.4-7c0.2-0.2,2.5-1.7,2.5-1.7c-0.6-0.2-1.3-0.3-1.9-0.5c0.1,0.2,0.3,0.4,0.3,0.6
				c-0.1,0.6,0.4,1.9,0.4,2.6c0,1,4.3,2.3,4.8,1.4c1.4-2.5,3.3-4.7,6.4-4.5c-1.3-0.5-2.6-1.1-4-1.6c0,3.3-2.3,5.4-5.3,6.3
				c-0.7,0.2,1.4,1.2,1.5,1.2C-407.6,24.1-406.3,24.5-405.4,24.2L-405.4,24.2z"/>
		</g>
	</g>
</g>
<g>
	<g>
		<g>
			<path fill="#65C8D0" d="M206.2,211.7c-0.7-17.2-1-33.4-8.9-49.1c-6.5-12.7-15.3-25.4-27.4-33.4c-24.4-16.2-57.8-11.6-84.3-3.6
				c-0.7,0.2,2.2,3.9,3.3,3.5c23.8-7.2,52.7-11.8,76-0.8c14.5,6.8,23.8,21.1,30.4,35.2c6.7,14.3,6.5,29.7,7.1,45.1
				C202.5,210,206.2,212.1,206.2,211.7L206.2,211.7z"/>
		</g>
	</g>
	<g>
		<g>
			<path fill="#65C8D0" d="M182.3,193.4c7.3,4.3,13.9,9.3,19.7,15.4c0.5,0.5,4.6,1.1,5,0.5c5-8.4,5-18.7,10.3-27
				c-0.2,0.3-4.4-1.4-5-0.5c-5.4,8.3-5.3,18.6-10.3,27c1.7,0.2,3.3,0.3,5,0.5c-5.9-6.1-12.6-11.2-19.9-15.5
				C185.9,193,182.9,193.7,182.3,193.4L182.3,193.4z"/>
		</g>
	</g>
	<g>
		<g>
			<path fill="#65C8D0" d="M187.6,196.4c8-2.5,15.6-5.9,23.6-8.4c1.4-0.4-2.3-3.5-3.8-3c-8,2.5-15.6,5.9-23.6,8.4
				C182.4,193.9,186.1,196.9,187.6,196.4L187.6,196.4z"/>
		</g>
	</g>
	<g>
		<g>
			<path fill="#65C8D0" d="M198.8,198.5c-1-0.3-3.9-2.9-3.2-4.3c0.5-1.2,2.3,2.2,2.5,2.7c0.4,0.7,4.8,2,4.8,1.2c0-1.1,0-2.5,0.7-3.4
				c-0.1,0.1,1.2-1.1,1.2-0.7c-1.4-0.5-1.8-0.6-1.2-0.2c0.2,0.2,0.4,0.4,0.6,0.6c1.2,2.9,0.8,4.8-1.5,7.1c1.5,0.4,3.1,0.9,4.6,1.3
				c-2.2-4.8,3.1-9.3,5.3-13c0.5-0.9-4.1-1.7-4.7-1.5c-6.7,1.8-9.3,7.4-9.3,14c0,1.2,4.8,1.9,4.8,1.4c-0.1-6.4,2.4-12,9-13.7
				c-1.6-0.5-3.1-1-4.7-1.5c-2.3,4.1-7.5,8.3-5.2,13.4c0.4,0.8,3.9,2,4.6,1.3c3.3-3.3,3.5-7.7-1-9.9c-3.8-1.9-8.2-1.8-8.1,3.4
				c1.6,0.4,3.2,0.8,4.8,1.2c-2.4-4.4-6.7-6.5-11.6-6.2c-0.2,0-0.3,0.1-0.4,0.2c0,4.5,3.9,6.6,7.7,7.8
				C201.2,200.6,201.6,199.4,198.8,198.5L198.8,198.5z"/>
		</g>
	</g>
</g>
<g>
	<g>
		<g>
			<path fill="#65C8D0" d="M1.2,26.5c8.3-2.5,17.5-1.3,26-1.6c9-0.2,17.9-0.1,26.8,0.2c9.1,0.3,18,1.2,27.1,1.9
				c4.4,0.3,8.9,0.5,13.3,0.9c4.4,0.4,9,1.6,13.3,1.7c1.2,0,4.9-2.6,3.6-2.6c-4.4-0.1-8.9-1.3-13.3-1.7c-5.1-0.4-10.1-0.7-15.2-1.1
				c-9.7-0.7-19.2-1.6-28.9-1.8c-9.4-0.2-18.8,0-28.3,0c-7.6,0-15.3-0.6-22.7,1.7C1.7,24.5-1.8,27.4,1.2,26.5L1.2,26.5z"/>
		</g>
	</g>
	<g>
		<g>
			<path fill="#65C8D0" d="M75.9,3.1c11,13.6,25.4,21.7,41.6,27.7c-0.4-1.4-0.8-2.9-1.2-4.3C102,29.9,86.5,32,75.8,43.1
				c-1.6,1.7,1.5,5.6,3,4c10.5-10.9,25.7-12.9,39.7-16.3c2.3-0.6,0-3.9-1.2-4.3c-15-5.6-28.5-12.9-38.7-25.5
				C76.7-1.3,74,0.7,75.9,3.1L75.9,3.1z"/>
		</g>
	</g>
</g>
</svg>
