<?xml version="1.0" encoding="utf-8"?>
<!-- Generator: Adobe Illustrator 18.1.1, SVG Export Plug-In . SVG Version: 6.00 Build 0)  -->
<svg version="1.1" id="Layer_1" xmlns="http://www.w3.org/2000/svg" xmlns:xlink="http://www.w3.org/1999/xlink" x="0px" y="0px"
	 viewBox="0 0 104.8 106.5" enable-background="new 0 0 104.8 106.5" xml:space="preserve">
<g id="XMLID_992_">
	<g id="XMLID_897_">
		<path id="XMLID_3091_" fill="#894D2F" d="M91.7,9.6c-0.1,0.1-0.2,0.1-0.2,0l-1.2-0.4L89,9.8c-0.1,0.1-0.3,0-0.3-0.1s0-0.3,0.1-0.3
			l1.4-0.6c0.1,0,0.1,0,0.2,0l1.3,0.4c0.1,0,0.2,0.2,0.2,0.3C91.7,9.5,91.7,9.5,91.7,9.6z"/>
	</g>
	<g id="XMLID_899_">
		<path id="XMLID_3090_" fill="#894D2F" d="M91.1,14.8c-0.1,0-0.1,0.1-0.2,0.1c-0.1,0-0.2-0.1-0.2-0.3l0.2-2.1c0-0.1,0-0.1,0.1-0.2
			l1.5-1.1c0.1-0.1,0.3-0.1,0.4,0c0.1,0.1,0.1,0.3,0,0.4l-1.4,1.1l-0.2,2C91.2,14.7,91.1,14.7,91.1,14.8z"/>
	</g>
	<g id="XMLID_900_">
		<path id="XMLID_3089_" fill="#894D2F" d="M94.5,16.7c0,0-0.1,0-0.1,0.1c-0.1,0-0.3-0.1-0.3-0.2L93.8,15c0-0.1,0-0.1,0-0.2l1-1.7
			c0.1-0.1,0.2-0.2,0.4-0.1c0.1,0.1,0.2,0.2,0.1,0.4L94.3,15l0.3,1.5C94.6,16.6,94.6,16.7,94.5,16.7z"/>
	</g>
	<g id="XMLID_903_">
		<path id="XMLID_3088_" fill="#894D2F" d="M98.3,4.3c0,0-0.1,0.1-0.1,0.1c-0.1,0-0.3-0.1-0.3-0.2l-0.1-1.3c0-0.1,0-0.1,0.1-0.2
			l0.9-1.2c0.1-0.1,0.3-0.1,0.4,0c0.1,0.1,0.1,0.3,0,0.4l-0.9,1.1l0.1,1.2C98.4,4.2,98.4,4.2,98.3,4.3z"/>
	</g>
	<g id="XMLID_902_">
		<path id="XMLID_3087_" fill="#894D2F" d="M103.5,4.9c-0.1,0-0.1,0.1-0.2,0.1l-2-0.2L100,5.8c-0.1,0.1-0.3,0.1-0.4,0
			c-0.1-0.1-0.1-0.3,0-0.4l1.5-1.1c0.1,0,0.1-0.1,0.2-0.1l2.1,0.2c0.1,0,0.2,0.1,0.2,0.3C103.6,4.8,103.6,4.9,103.5,4.9z"/>
	</g>
	<g id="XMLID_901_">
		<path id="XMLID_3086_" fill="#894D2F" d="M104.7,8.7c-0.1,0.1-0.2,0.1-0.3,0L103,8.1l-1.8,0.5c-0.1,0-0.3,0-0.3-0.2
			c0-0.1,0-0.3,0.2-0.3l1.9-0.6c0.1,0,0.1,0,0.2,0l1.5,0.7C104.7,8.3,104.8,8.5,104.7,8.7C104.7,8.7,104.7,8.7,104.7,8.7z"/>
	</g>
	<g id="XMLID_906_">
		<path id="XMLID_3085_" fill="#894D2F" d="M90.8,3.9c-0.1,0.1-0.2,0.1-0.2,0L89,3.4c-0.1,0-0.2-0.2-0.2-0.3c0-0.1,0.2-0.2,0.3-0.2
			l1.6,0.5c0.1,0,0.2,0.2,0.2,0.3C90.9,3.8,90.9,3.9,90.8,3.9z"/>
	</g>
	<g id="XMLID_904_">
		<path id="XMLID_3084_" fill="#894D2F" d="M93,2.1c0,0-0.1,0.1-0.1,0.1c-0.1,0-0.3-0.1-0.3-0.2l-0.1-1.7c0-0.1,0.1-0.3,0.2-0.3
			C92.8,0,93,0.1,93,0.2l0.1,1.7C93.1,2,93.1,2.1,93,2.1z"/>
	</g>
	<g id="XMLID_875_">
		
			<ellipse id="XMLID_1909_" transform="matrix(-0.62 -0.7846 0.7846 -0.62 149.1566 88.8684)" fill="#A38671" cx="96.1" cy="8.3" rx="5.7" ry="4.6"/>
	</g>
	<g id="XMLID_907_">
		
			<ellipse id="XMLID_1908_" transform="matrix(-0.62 -0.7846 0.7846 -0.62 149.1566 88.8684)" fill="#D8903A" cx="96.1" cy="8.3" rx="5.7" ry="3.1"/>
	</g>
	<path id="XMLID_2030_" fill="#F0DEB4" d="M94.2,5.9c-0.1,0.1-0.1,0.3,0,0.4l5.3,6.7c0.1,0,0.1-0.1,0.2-0.2s0.1-0.1,0.2-0.2
		l-5.3-6.7C94.5,5.8,94.3,5.8,94.2,5.9z"/>
	<g id="XMLID_898_">
		<path id="XMLID_1907_" fill="#704220" d="M90.9,6.5c-0.8-1-0.7-2.9,0.6-3.9c1.3-1,3.2-0.7,4,0.3s0.1,2.3-1.1,3.3
			C93.1,7.1,91.7,7.4,90.9,6.5z"/>
	</g>
	<path id="XMLID_2032_" opacity="0.49" fill="#D0D5D9" enable-background="new    " d="M92.7,2c0.8,0,1.6,0.4,2.1,0.9
		c0.8,1,0.1,2.3-1.1,3.3C93.1,6.6,92.6,6.9,92,7c0.7,0.1,1.6-0.3,2.4-0.9c1.3-1,1.9-2.3,1.1-3.3C94.9,2.1,93.8,1.8,92.7,2z"/>
</g>
<g>
	<path fill="#999999" d="M29,61L29,61c-8.8,0-15.9,7.1-15.9,15.9v24.4h31.7V76.9C44.8,68.1,37.7,61,29,61z"/>
	<g>
		<circle fill="#CCCCCC" cx="29" cy="77.1" r="12.9"/>
		<path fill="#808080" d="M29,90.5c-3.6,0-6.9-1.4-9.5-3.9c-5.2-5.2-5.2-13.7,0-19c2.5-2.5,5.9-3.9,9.5-3.9c3.6,0,7,1.4,9.5,3.9l0,0
			l0,0c2.5,2.5,3.9,5.9,3.9,9.5s-1.4,6.9-3.9,9.5C35.9,89.1,32.6,90.5,29,90.5z M29,64.7c-3.3,0-6.5,1.3-8.8,3.6
			c-4.9,4.9-4.9,12.8,0,17.6c2.4,2.4,5.5,3.6,8.8,3.6c3.3,0,6.5-1.3,8.8-3.6c2.4-2.4,3.6-5.5,3.6-8.8c0-3.3-1.3-6.5-3.6-8.8l0,0
			C35.4,66,32.3,64.7,29,64.7z"/>
	</g>
	<rect x="0" y="101.3" fill="#808080" width="73.1" height="5.2"/>
	<g>
		<circle fill="#CCCCCC" cx="19.3" cy="95.7" r="3.3"/>
		<circle fill="#CCCCCC" cx="38.6" cy="95.7" r="3.3"/>
	</g>
	<g>
		
			<rect x="38.7" y="20.1" transform="matrix(-0.932 0.3624 -0.3624 -0.932 112.4779 32.5928)" fill="#999999" width="29" height="13.6"/>
		
			<rect x="45.2" y="24" transform="matrix(-0.932 0.3624 -0.3624 -0.932 110.1224 34.0573)" fill="#808080" width="13.3" height="6.7"/>
		<path fill="#CCCCCC" d="M85.9,18.3c1.8,4.6-0.5,9.8-5.1,11.5l-5.7,2.2c-5.5,2.1-11.6-0.6-13.8-6.1l-1.6-4.1
			c-2.1-5.5,0.6-11.6,6.1-13.8L71.5,6c2.3-0.9,4.7-0.8,6.8,0.1C80.4,7,82.1,8.7,83,11l-12.4,4.8l2.8,7.3L85.9,18.3z"/>
		<circle fill="#999999" cx="66.4" cy="21.7" r="3.3"/>
		
			<rect x="74.9" y="22.3" transform="matrix(-0.932 0.3624 -0.3624 -0.932 157.6987 23.8682)" fill="#999999" width="3.3" height="8.9"/>
	</g>
	<g>
		<path fill="#CCCCCC" d="M51.2,34.6L26.5,59.3L15.4,48.2l24.7-24.7c3.1-3.1,8-3.1,11.1,0l0,0C54.2,26.5,54.2,31.5,51.2,34.6z"/>
		<circle fill="#999999" cx="46.6" cy="28.1" r="3.3"/>
		<g>
			
				<rect x="28.9" y="40.3" transform="matrix(-0.7071 0.7071 -0.7071 -0.7071 83.0108 54.4825)" fill="#808080" width="2.6" height="8.3"/>
			
				<rect x="32.7" y="36.5" transform="matrix(-0.7071 0.7071 -0.7071 -0.7071 86.7497 45.4562)" fill="#808080" width="2.6" height="8.3"/>
			
				<rect x="36.4" y="32.8" transform="matrix(-0.7071 0.7071 -0.7071 -0.7071 90.4888 36.4302)" fill="#808080" width="2.6" height="8.3"/>
			
				<rect x="40.1" y="29.1" transform="matrix(-0.7071 0.7071 -0.7071 -0.7071 94.2275 27.4041)" fill="#808080" width="2.6" height="8.3"/>
		</g>
	</g>
	<g>
		<path fill="#999999" d="M19.3,42L19.3,42c-4.5,1.2-7.1,5.8-5.8,10.3l7.5,27.1c1.2,4.5,5.8,7.1,10.3,5.8l0,0
			c4.5-1.2,7.1-5.8,5.8-10.3l-7.5-27.1C28.3,43.4,23.7,40.8,19.3,42z"/>
		<circle fill="#CCCCCC" cx="28.9" cy="77.2" r="3.3"/>
		<circle fill="#CCCCCC" cx="21.5" cy="50.2" r="3.3"/>
		
			<rect x="19.3" y="55.5" transform="matrix(-0.964 0.2658 -0.2658 -0.964 66.3078 118.0226)" fill="#808080" width="11.6" height="15.9"/>
	</g>
</g>
</svg>
