<?xml version="1.0" encoding="utf-8"?>
<!-- Generator: Adobe Illustrator 18.1.1, SVG Export Plug-In . SVG Version: 6.00 Build 0)  -->
<svg version="1.1" id="Capa_1" xmlns="http://www.w3.org/2000/svg" xmlns:xlink="http://www.w3.org/1999/xlink" x="0px" y="0px"
	 viewBox="254.4 0.7 91.1 98.7" enable-background="new 254.4 0.7 91.1 98.7" xml:space="preserve">
<line fill="none" stroke="#A3ABAF" stroke-width="2" stroke-linecap="round" stroke-miterlimit="10" x1="297.8" y1="6.7" x2="297.8" y2="1.7"/>
<line fill="none" stroke="#A3ABAF" stroke-width="2" stroke-linecap="round" stroke-miterlimit="10" x1="297.8" y1="98.3" x2="297.8" y2="66.7"/>
<line fill="none" stroke="#A3ABAF" stroke-width="2" stroke-linecap="round" stroke-miterlimit="10" x1="297.8" y1="33.3" x2="297.8" y2="40"/>
<path fill="#23A24D" d="M330.9,33.3h-64.2c-2.2,0-4-1.8-4-4V10.7c0-2.2,1.8-4,4-4h64.2l14.5,13.1c0.2,0.1,0.2,0.4,0,0.5L330.9,33.3z
	"/>
<path fill="#EBBA16" d="M269.1,66.7h64.7c2.2,0,4-1.8,4-4V44c0-2.2-1.8-4-4-4h-64.7l-14.5,13.1c-0.2,0.1-0.2,0.4,0,0.5L269.1,66.7z"
	/>
<text transform="matrix(1 0 0 1 274.3335 27.4998)" fill="#FFFFFF" font-family="'amyshandwriting'" font-size="24">????</text>
<text transform="matrix(1 0 0 1 274.3335 60.4998)" fill="#FFFFFF" font-family="'amyshandwriting'" font-size="24">????</text>
</svg>
